<mxfile host="app.diagrams.net" modified="2023-06-09T10:11:40.122Z" agent="Mozilla/5.0 (Windows NT 10.0; Win64; x64) AppleWebKit/537.36 (KHTML, like Gecko) Chrome/114.0.0.0 Safari/537.36" etag="jIelg9edyyYbYOXzJIPc" version="21.3.8" type="github">
  <diagram id="prtHgNgQTEPvFCAcTncT" name="Page-1">
    <mxGraphModel dx="1740" dy="498" grid="1" gridSize="10" guides="1" tooltips="1" connect="1" arrows="1" fold="1" page="1" pageScale="1" pageWidth="827" pageHeight="1169" math="0" shadow="0">
      <root>
        <mxCell id="0" />
        <mxCell id="1" parent="0" />
        <mxCell id="nng4U_16F_-NZcDSoOfd-1" value="3-1-物流供应商运营流程" style="swimlane;childLayout=stackLayout;resizeParent=1;resizeParentMax=0;startSize=20;html=1;" vertex="1" parent="1">
          <mxGeometry x="40.000000000000455" y="40" width="680" height="1220" as="geometry" />
        </mxCell>
        <mxCell id="nng4U_16F_-NZcDSoOfd-2" value="健康会员" style="swimlane;startSize=20;html=1;" vertex="1" parent="nng4U_16F_-NZcDSoOfd-1">
          <mxGeometry y="20" width="170" height="1200" as="geometry" />
        </mxCell>
        <mxCell id="nng4U_16F_-NZcDSoOfd-17" value="" style="edgeStyle=orthogonalEdgeStyle;rounded=0;orthogonalLoop=1;jettySize=auto;html=1;" edge="1" parent="nng4U_16F_-NZcDSoOfd-2" source="nng4U_16F_-NZcDSoOfd-7" target="nng4U_16F_-NZcDSoOfd-16">
          <mxGeometry relative="1" as="geometry" />
        </mxCell>
        <mxCell id="nng4U_16F_-NZcDSoOfd-7" value="会员发出采摘需求&lt;br&gt;选择包装格式" style="whiteSpace=wrap;html=1;fontSize=10;rounded=0;" vertex="1" parent="nng4U_16F_-NZcDSoOfd-2">
          <mxGeometry x="30" y="101" width="120" height="30" as="geometry" />
        </mxCell>
        <mxCell id="nng4U_16F_-NZcDSoOfd-16" value="生成采摘订单&lt;br&gt;完成支付" style="whiteSpace=wrap;html=1;fontSize=10;rounded=0;" vertex="1" parent="nng4U_16F_-NZcDSoOfd-2">
          <mxGeometry x="30" y="170" width="120" height="30" as="geometry" />
        </mxCell>
        <mxCell id="nng4U_16F_-NZcDSoOfd-54" value="系统分发收件码" style="whiteSpace=wrap;html=1;fontSize=10;rounded=0;" vertex="1" parent="nng4U_16F_-NZcDSoOfd-2">
          <mxGeometry x="20" y="789" width="120" height="30" as="geometry" />
        </mxCell>
        <mxCell id="nng4U_16F_-NZcDSoOfd-3" value="平台" style="swimlane;startSize=20;html=1;" vertex="1" parent="nng4U_16F_-NZcDSoOfd-1">
          <mxGeometry x="170" y="20" width="170" height="1200" as="geometry" />
        </mxCell>
        <mxCell id="nng4U_16F_-NZcDSoOfd-5" value="农业专家设置采摘节点" style="rounded=0;whiteSpace=wrap;html=1;fontSize=10;" vertex="1" parent="nng4U_16F_-NZcDSoOfd-3">
          <mxGeometry x="21" y="41" width="127.5" height="30" as="geometry" />
        </mxCell>
        <mxCell id="nng4U_16F_-NZcDSoOfd-12" value="" style="edgeStyle=orthogonalEdgeStyle;rounded=0;orthogonalLoop=1;jettySize=auto;html=1;" edge="1" parent="nng4U_16F_-NZcDSoOfd-3" source="nng4U_16F_-NZcDSoOfd-9" target="nng4U_16F_-NZcDSoOfd-11">
          <mxGeometry relative="1" as="geometry" />
        </mxCell>
        <mxCell id="nng4U_16F_-NZcDSoOfd-9" value="组织采摘(线下上报)" style="whiteSpace=wrap;html=1;fontSize=10;rounded=0;" vertex="1" parent="nng4U_16F_-NZcDSoOfd-3">
          <mxGeometry x="28.5" y="240" width="120" height="30" as="geometry" />
        </mxCell>
        <mxCell id="nng4U_16F_-NZcDSoOfd-15" value="" style="edgeStyle=orthogonalEdgeStyle;rounded=0;orthogonalLoop=1;jettySize=auto;html=1;" edge="1" parent="nng4U_16F_-NZcDSoOfd-3" source="nng4U_16F_-NZcDSoOfd-11" target="nng4U_16F_-NZcDSoOfd-14">
          <mxGeometry relative="1" as="geometry" />
        </mxCell>
        <mxCell id="nng4U_16F_-NZcDSoOfd-11" value="包装(线下上报)" style="whiteSpace=wrap;html=1;fontSize=10;rounded=0;" vertex="1" parent="nng4U_16F_-NZcDSoOfd-3">
          <mxGeometry x="28.5" y="297" width="120" height="30" as="geometry" />
        </mxCell>
        <mxCell id="nng4U_16F_-NZcDSoOfd-20" value="" style="edgeStyle=orthogonalEdgeStyle;rounded=0;orthogonalLoop=1;jettySize=auto;html=1;" edge="1" parent="nng4U_16F_-NZcDSoOfd-3" source="nng4U_16F_-NZcDSoOfd-14" target="nng4U_16F_-NZcDSoOfd-19">
          <mxGeometry relative="1" as="geometry" />
        </mxCell>
        <mxCell id="nng4U_16F_-NZcDSoOfd-14" value="生成快递编码&lt;br&gt;打印并且贴封面" style="whiteSpace=wrap;html=1;fontSize=10;rounded=0;" vertex="1" parent="nng4U_16F_-NZcDSoOfd-3">
          <mxGeometry x="28.5" y="357" width="120" height="30" as="geometry" />
        </mxCell>
        <mxCell id="nng4U_16F_-NZcDSoOfd-19" value="合并对接物流" style="whiteSpace=wrap;html=1;fontSize=10;rounded=0;" vertex="1" parent="nng4U_16F_-NZcDSoOfd-3">
          <mxGeometry x="28.5" y="440" width="120" height="30" as="geometry" />
        </mxCell>
        <mxCell id="nng4U_16F_-NZcDSoOfd-53" value="" style="edgeStyle=orthogonalEdgeStyle;rounded=0;orthogonalLoop=1;jettySize=auto;html=1;" edge="1" parent="nng4U_16F_-NZcDSoOfd-3" source="nng4U_16F_-NZcDSoOfd-25" target="nng4U_16F_-NZcDSoOfd-52">
          <mxGeometry relative="1" as="geometry" />
        </mxCell>
        <mxCell id="nng4U_16F_-NZcDSoOfd-25" value="收货确认" style="whiteSpace=wrap;html=1;fontSize=10;rounded=0;" vertex="1" parent="nng4U_16F_-NZcDSoOfd-3">
          <mxGeometry x="25" y="648" width="120" height="30" as="geometry" />
        </mxCell>
        <mxCell id="nng4U_16F_-NZcDSoOfd-52" value="指派城市快递" style="whiteSpace=wrap;html=1;fontSize=10;rounded=0;fillColor=#dae8fc;strokeColor=#6c8ebf;" vertex="1" parent="nng4U_16F_-NZcDSoOfd-3">
          <mxGeometry x="25" y="725" width="120" height="30" as="geometry" />
        </mxCell>
        <mxCell id="nng4U_16F_-NZcDSoOfd-61" value="订单完结" style="whiteSpace=wrap;html=1;fontSize=10;rounded=0;fillColor=#d5e8d4;strokeColor=#82b366;" vertex="1" parent="nng4U_16F_-NZcDSoOfd-3">
          <mxGeometry x="28.5" y="990" width="120" height="30" as="geometry" />
        </mxCell>
        <mxCell id="nng4U_16F_-NZcDSoOfd-63" value="平台物流结算" style="whiteSpace=wrap;html=1;fontSize=10;rounded=0;" vertex="1" parent="nng4U_16F_-NZcDSoOfd-3">
          <mxGeometry x="28.5" y="1070" width="120" height="30" as="geometry" />
        </mxCell>
        <mxCell id="nng4U_16F_-NZcDSoOfd-4" value="物流供应商" style="swimlane;startSize=20;html=1;" vertex="1" parent="nng4U_16F_-NZcDSoOfd-1">
          <mxGeometry x="340" y="20" width="170" height="1200" as="geometry" />
        </mxCell>
        <mxCell id="nng4U_16F_-NZcDSoOfd-24" value="" style="edgeStyle=orthogonalEdgeStyle;rounded=0;orthogonalLoop=1;jettySize=auto;html=1;" edge="1" parent="nng4U_16F_-NZcDSoOfd-4" source="nng4U_16F_-NZcDSoOfd-21" target="nng4U_16F_-NZcDSoOfd-23">
          <mxGeometry relative="1" as="geometry" />
        </mxCell>
        <mxCell id="nng4U_16F_-NZcDSoOfd-21" value="确认订单" style="whiteSpace=wrap;html=1;fontSize=10;rounded=0;" vertex="1" parent="nng4U_16F_-NZcDSoOfd-4">
          <mxGeometry x="25" y="510" width="120" height="30" as="geometry" />
        </mxCell>
        <mxCell id="nng4U_16F_-NZcDSoOfd-23" value="城市间物流" style="whiteSpace=wrap;html=1;fontSize=10;rounded=0;fillColor=#fff2cc;strokeColor=#d6b656;" vertex="1" parent="nng4U_16F_-NZcDSoOfd-4">
          <mxGeometry x="25" y="581" width="120" height="30" as="geometry" />
        </mxCell>
        <mxCell id="nng4U_16F_-NZcDSoOfd-64" value="线下结算&lt;br&gt;线上信息同步" style="whiteSpace=wrap;html=1;fontSize=10;rounded=0;" vertex="1" parent="nng4U_16F_-NZcDSoOfd-4">
          <mxGeometry x="25" y="1120" width="120" height="30" as="geometry" />
        </mxCell>
        <mxCell id="nng4U_16F_-NZcDSoOfd-13" value="城市快递" style="swimlane;startSize=20;html=1;" vertex="1" parent="nng4U_16F_-NZcDSoOfd-1">
          <mxGeometry x="510" y="20" width="170" height="1200" as="geometry" />
        </mxCell>
        <mxCell id="nng4U_16F_-NZcDSoOfd-60" value="" style="edgeStyle=orthogonalEdgeStyle;rounded=0;orthogonalLoop=1;jettySize=auto;html=1;" edge="1" parent="nng4U_16F_-NZcDSoOfd-13" source="nng4U_16F_-NZcDSoOfd-56" target="nng4U_16F_-NZcDSoOfd-58">
          <mxGeometry relative="1" as="geometry" />
        </mxCell>
        <mxCell id="nng4U_16F_-NZcDSoOfd-56" value="当地配送" style="whiteSpace=wrap;html=1;fontSize=10;rounded=0;" vertex="1" parent="nng4U_16F_-NZcDSoOfd-13">
          <mxGeometry x="25" y="819" width="120" height="30" as="geometry" />
        </mxCell>
        <mxCell id="nng4U_16F_-NZcDSoOfd-58" value="收件码确认" style="whiteSpace=wrap;html=1;fontSize=10;rounded=0;" vertex="1" parent="nng4U_16F_-NZcDSoOfd-13">
          <mxGeometry x="25" y="900" width="120" height="30" as="geometry" />
        </mxCell>
        <mxCell id="nng4U_16F_-NZcDSoOfd-8" value="" style="edgeStyle=orthogonalEdgeStyle;rounded=0;orthogonalLoop=1;jettySize=auto;html=1;" edge="1" parent="nng4U_16F_-NZcDSoOfd-1" source="nng4U_16F_-NZcDSoOfd-5" target="nng4U_16F_-NZcDSoOfd-7">
          <mxGeometry relative="1" as="geometry">
            <Array as="points">
              <mxPoint x="90" y="80" />
            </Array>
          </mxGeometry>
        </mxCell>
        <mxCell id="nng4U_16F_-NZcDSoOfd-10" style="edgeStyle=orthogonalEdgeStyle;rounded=0;orthogonalLoop=1;jettySize=auto;html=1;exitX=1;exitY=0.5;exitDx=0;exitDy=0;" edge="1" parent="nng4U_16F_-NZcDSoOfd-1" source="nng4U_16F_-NZcDSoOfd-16" target="nng4U_16F_-NZcDSoOfd-9">
          <mxGeometry relative="1" as="geometry" />
        </mxCell>
        <mxCell id="nng4U_16F_-NZcDSoOfd-22" style="edgeStyle=orthogonalEdgeStyle;rounded=0;orthogonalLoop=1;jettySize=auto;html=1;" edge="1" parent="nng4U_16F_-NZcDSoOfd-1" source="nng4U_16F_-NZcDSoOfd-19" target="nng4U_16F_-NZcDSoOfd-21">
          <mxGeometry relative="1" as="geometry" />
        </mxCell>
        <mxCell id="nng4U_16F_-NZcDSoOfd-27" style="edgeStyle=orthogonalEdgeStyle;rounded=0;orthogonalLoop=1;jettySize=auto;html=1;entryX=0.5;entryY=0;entryDx=0;entryDy=0;" edge="1" parent="nng4U_16F_-NZcDSoOfd-1" source="nng4U_16F_-NZcDSoOfd-23" target="nng4U_16F_-NZcDSoOfd-25">
          <mxGeometry relative="1" as="geometry" />
        </mxCell>
        <mxCell id="nng4U_16F_-NZcDSoOfd-55" style="edgeStyle=orthogonalEdgeStyle;rounded=0;orthogonalLoop=1;jettySize=auto;html=1;" edge="1" parent="nng4U_16F_-NZcDSoOfd-1" source="nng4U_16F_-NZcDSoOfd-52" target="nng4U_16F_-NZcDSoOfd-54">
          <mxGeometry relative="1" as="geometry" />
        </mxCell>
        <mxCell id="nng4U_16F_-NZcDSoOfd-57" style="edgeStyle=orthogonalEdgeStyle;rounded=0;orthogonalLoop=1;jettySize=auto;html=1;" edge="1" parent="nng4U_16F_-NZcDSoOfd-1" source="nng4U_16F_-NZcDSoOfd-52" target="nng4U_16F_-NZcDSoOfd-56">
          <mxGeometry relative="1" as="geometry" />
        </mxCell>
        <mxCell id="nng4U_16F_-NZcDSoOfd-59" style="edgeStyle=orthogonalEdgeStyle;rounded=0;orthogonalLoop=1;jettySize=auto;html=1;entryX=0;entryY=0.5;entryDx=0;entryDy=0;" edge="1" parent="nng4U_16F_-NZcDSoOfd-1" source="nng4U_16F_-NZcDSoOfd-54" target="nng4U_16F_-NZcDSoOfd-58">
          <mxGeometry relative="1" as="geometry">
            <Array as="points">
              <mxPoint x="80" y="935" />
            </Array>
          </mxGeometry>
        </mxCell>
        <mxCell id="nng4U_16F_-NZcDSoOfd-62" style="edgeStyle=orthogonalEdgeStyle;rounded=0;orthogonalLoop=1;jettySize=auto;html=1;" edge="1" parent="nng4U_16F_-NZcDSoOfd-1" source="nng4U_16F_-NZcDSoOfd-58" target="nng4U_16F_-NZcDSoOfd-61">
          <mxGeometry relative="1" as="geometry">
            <Array as="points">
              <mxPoint x="595" y="980" />
              <mxPoint x="259" y="980" />
            </Array>
          </mxGeometry>
        </mxCell>
        <mxCell id="nng4U_16F_-NZcDSoOfd-65" style="edgeStyle=orthogonalEdgeStyle;rounded=0;orthogonalLoop=1;jettySize=auto;html=1;" edge="1" parent="nng4U_16F_-NZcDSoOfd-1" source="nng4U_16F_-NZcDSoOfd-63" target="nng4U_16F_-NZcDSoOfd-64">
          <mxGeometry relative="1" as="geometry" />
        </mxCell>
        <mxCell id="nng4U_16F_-NZcDSoOfd-18" value="&lt;h1&gt;采摘需求&lt;/h1&gt;&lt;p&gt;采摘方式： 一次性、分批次&lt;/p&gt;&lt;p&gt;采摘规格：大小混合、只采摘大的；&lt;/p&gt;&lt;p&gt;包装规格： 5斤装，10斤装，20斤装， 整袋或者整箱&lt;/p&gt;" style="text;html=1;strokeColor=#6600CC;fillColor=default;spacing=5;spacingTop=-20;whiteSpace=wrap;overflow=hidden;rounded=0;dashed=1;dashPattern=12 12;" vertex="1" parent="1">
          <mxGeometry x="-180" y="110" width="190" height="180" as="geometry" />
        </mxCell>
      </root>
    </mxGraphModel>
  </diagram>
</mxfile>
